<?xml version="1.0" encoding="utf-8"?>
<!-- Generated by IcoMoon.io -->
<!DOCTYPE svg PUBLIC "-//W3C//DTD SVG 1.1//EN" "http://www.w3.org/Graphics/SVG/1.1/DTD/svg11.dtd">
<svg version="1.1" xmlns="http://www.w3.org/2000/svg" xmlns:xlink="http://www.w3.org/1999/xlink" width="64" height="64" viewBox="0 0 64 64">
	<path d="M48.021 32.084c0-5.931-3.231-11.097-8.021-13.867v-2.242c0-4.404-3.596-7.975-8-7.975s-8 3.571-8 7.975v2.242c-4.79 2.77-8.021 7.936-8.021 13.867v19.916h12.021c0 2.209 1.791 4 4 4s4-1.791 4-4v0h12.021v-19.916zM28 15.975c0-2.192 1.808-3.975 4-3.975s4 1.783 4 3.975v0.612c-1.281-0.33-2.616-0.524-4-0.524s-2.719 0.194-4 0.524v-0.612zM44.021 48h-24.042v-15.916c0-6.629 5.393-12.021 12.021-12.021s12.021 5.393 12.021 12.021v15.916z" fill="#000000" />
</svg>
