<?xml version="1.0" encoding="utf-8"?>
<!-- Generated by IcoMoon.io -->
<!DOCTYPE svg PUBLIC "-//W3C//DTD SVG 1.1//EN" "http://www.w3.org/Graphics/SVG/1.1/DTD/svg11.dtd">
<svg version="1.1" xmlns="http://www.w3.org/2000/svg" xmlns:xlink="http://www.w3.org/1999/xlink" width="64" height="64" viewBox="0 0 64 64">
	<path d="M34 30v-26h-4v26h-26v4h26v26h4v-26h26v-4z" fill="#000000" />
	<path d="M40 14h16v4h-16v-4z" fill="#000000" />
	<path d="M40 41.984h16v4h-16v-4z" fill="#000000" />
	<path d="M40 50h16v4h-16v-4z" fill="#000000" />
	<path d="M14.045 24.045h4v-6h5.939v-4h-5.939v-6.061h-4v6.061h-6.061v4h6.061z" fill="#000000" />
	<path d="M20.292 41.087l-4.286 4.286-4.286-4.286-2.828 2.828 4.286 4.286-4.243 4.242 2.828 2.828 4.243-4.242 4.2 4.2 2.828-2.829-4.2-4.199 4.286-4.286z" fill="#000000" />
</svg>
