<?xml version="1.0" encoding="utf-8"?>
<!-- Generated by IcoMoon.io -->
<!DOCTYPE svg PUBLIC "-//W3C//DTD SVG 1.1//EN" "http://www.w3.org/Graphics/SVG/1.1/DTD/svg11.dtd">
<svg version="1.1" xmlns="http://www.w3.org/2000/svg" xmlns:xlink="http://www.w3.org/1999/xlink" width="64" height="64" viewBox="0 0 64 64">
	<path d="M48 12v-3.945h-4v3.945h-24v-3.945h-4v3.945h-8v44h48v-44h-8zM52 52h-40v-36h4v8.055h4v-8.055h24v8.055h4v-8.055h4v36z" fill="#000000" />
	<path d="M22.050 42.432c0.414-0.436 1.35-1.266 2.809-2.49 1.746-1.477 2.995-2.638 3.747-3.485 0.752-0.845 1.289-1.652 1.613-2.416 0.325-0.766 0.486-1.544 0.486-2.336 0-1.558-0.554-2.863-1.661-3.916-1.107-1.053-2.611-1.58-4.51-1.58-1.881 0-3.38 0.489-4.496 1.466-1.117 0.977-1.76 2.397-1.931 4.26l2.498 0.257c0.009-1.242 0.365-2.215 1.067-2.917 0.702-0.703 1.638-1.054 2.809-1.054 1.107 0 2.005 0.331 2.694 0.993 0.688 0.662 1.032 1.474 1.032 2.437 0 0.918-0.378 1.893-1.134 2.923-0.756 1.031-2.21 2.429-4.362 4.193-1.386 1.134-2.446 2.132-3.18 2.997-0.734 0.864-1.267 1.742-1.6 2.633-0.207 0.539-0.301 1.102-0.283 1.687h13.084v-2.336h-9.709c0.271-0.44 0.613-0.879 1.027-1.316z" fill="#000000" />
	<path d="M42.627 35.35c0.983-0.368 1.714-0.893 2.196-1.572 0.479-0.679 0.721-1.479 0.721-2.397 0-1.44-0.524-2.662-1.579-3.666s-2.445-1.506-4.172-1.506c-1.719 0-3.097 0.491-4.133 1.472-1.034 0.982-1.552 2.192-1.552 3.632 0 0.955 0.244 1.773 0.728 2.458 0.487 0.683 1.234 1.211 2.241 1.579-1.205 0.315-2.135 0.907-2.787 1.776-0.653 0.869-0.979 1.947-0.979 3.234 0 1.727 0.598 3.171 1.795 4.327 1.197 1.156 2.774 1.735 4.726 1.735 1.955 0 3.528-0.576 4.726-1.729 1.197-1.152 1.796-2.575 1.796-4.266 0-1.225-0.318-2.278-0.951-3.16-0.636-0.881-1.56-1.52-2.776-1.917zM36.592 31.232c0-0.828 0.305-1.539 0.919-2.133 0.612-0.594 1.38-0.891 2.307-0.891 0.919 0 1.685 0.304 2.302 0.911 0.617 0.608 0.924 1.357 0.924 2.248 0 0.856-0.299 1.577-0.898 2.167-0.599 0.589-1.364 0.885-2.302 0.885-0.962 0-1.746-0.297-2.35-0.891-0.6-0.594-0.902-1.36-0.902-2.296zM42.736 43.304c-0.755 0.747-1.714 1.121-2.877 1.121-0.747 0-1.444-0.177-2.093-0.534-0.646-0.355-1.136-0.857-1.465-1.505-0.328-0.649-0.493-1.319-0.493-2.012 0-1.135 0.376-2.079 1.129-2.836s1.698-1.134 2.842-1.134c1.171 0 2.143 0.383 2.922 1.147 0.779 0.766 1.168 1.732 1.168 2.903 0 1.153-0.376 2.103-1.133 2.85z" fill="#000000" />
</svg>
