<?xml version="1.0" encoding="utf-8"?>
<!-- Generated by IcoMoon.io -->
<!DOCTYPE svg PUBLIC "-//W3C//DTD SVG 1.1//EN" "http://www.w3.org/Graphics/SVG/1.1/DTD/svg11.dtd">
<svg version="1.1" xmlns="http://www.w3.org/2000/svg" xmlns:xlink="http://www.w3.org/1999/xlink" width="64" height="64" viewBox="0 0 64 64">
	<path d="M32 9.6c-12.372 0-22.4 10.028-22.4 22.4 0 12.371 10.028 22.4 22.4 22.4 12.37 0 22.4-10.029 22.4-22.4 0-12.372-10.030-22.4-22.4-22.4zM13.6 32c0-10.146 8.254-18.4 18.4-18.4 3.861 0 7.444 1.201 10.407 3.241l-23.836 27.697c-3.074-3.289-4.971-7.691-4.971-12.538zM32 50.4c-3.861 0-7.444-1.201-10.407-3.241l23.836-27.697c3.074 3.29 4.971 7.692 4.971 12.538 0 10.146-8.254 18.4-18.4 18.4z" fill="#000000" />
</svg>
