<?xml version="1.0" encoding="utf-8"?>
<!-- Generated by IcoMoon.io -->
<!DOCTYPE svg PUBLIC "-//W3C//DTD SVG 1.1//EN" "http://www.w3.org/Graphics/SVG/1.1/DTD/svg11.dtd">
<svg version="1.1" xmlns="http://www.w3.org/2000/svg" xmlns:xlink="http://www.w3.org/1999/xlink" width="64" height="64" viewBox="0 0 64 64">
	<path d="M40.423 12.025c8.735 0.229 15.577 7.246 15.577 15.975 0 6.351-3.768 12.099-9.6 14.645l-2.4 1.047v2.651l-2.343-2.343h-1.657l-16.423-0.025c-8.735-0.229-15.577-7.246-15.577-15.975s6.842-15.746 15.577-15.975l15.879-0.025M40.528 8h-17.056v0.027c-10.799 0.282-19.472 9.105-19.472 19.973 0 10.867 8.673 19.691 19.472 19.973v0.027h16.528l8 8v-9.689c7.061-3.083 12-10.112 12-18.311 0-10.867-8.673-19.691-19.472-19.973v-0.027z" fill="#000000" />
</svg>
