<?xml version="1.0" encoding="utf-8"?>
<!-- Generated by IcoMoon.io -->
<!DOCTYPE svg PUBLIC "-//W3C//DTD SVG 1.1//EN" "http://www.w3.org/Graphics/SVG/1.1/DTD/svg11.dtd">
<svg version="1.1" xmlns="http://www.w3.org/2000/svg" xmlns:xlink="http://www.w3.org/1999/xlink" width="64" height="64" viewBox="0 0 64 64">
	<path d="M32 9.6c-12.372 0-22.4 10.028-22.4 22.4 0 12.371 10.028 22.4 22.4 22.4 12.37 0 22.4-10.029 22.4-22.4 0-12.372-10.030-22.4-22.4-22.4zM32 50.4c-10.146 0-18.4-8.254-18.4-18.4s8.254-18.4 18.4-18.4 18.4 8.254 18.4 18.4c0 10.146-8.254 18.4-18.4 18.4z" fill="#000000" />
	<path d="M32.896 18h-4v16.718l14.802 2.26 0.604-3.956-11.406-1.74z" fill="#000000" />
</svg>
