<?xml version="1.0" encoding="utf-8"?>
<!-- Generated by IcoMoon.io -->
<!DOCTYPE svg PUBLIC "-//W3C//DTD SVG 1.1//EN" "http://www.w3.org/Graphics/SVG/1.1/DTD/svg11.dtd">
<svg version="1.1" xmlns="http://www.w3.org/2000/svg" xmlns:xlink="http://www.w3.org/1999/xlink" width="64" height="64" viewBox="0 0 64 64">
	<path d="M51.901 28.046c-0.398-4.101-2.049-7.827-4.545-10.824l5.159-5.995-3.031-2.609-4.985 5.793c-3.425-2.752-7.764-4.411-12.499-4.411-11.045 0-20 8.955-20 20v4h-2c-5.523 0-10 4.477-10 10 0 5.522 4.477 10 10 10h0.428l-1.997 2.32 3.032 2.609 4.243-4.929h35.294c7.18 0 13-5.82 13-13 0-6.875-5.341-12.49-12.099-12.954zM10 50c-3.308 0-6-2.692-6-6s2.692-6 6-6h6v-8c0-8.822 7.178-16 16-16 3.739 0 7.178 1.275 9.907 3.421l-28.037 32.579h-3.87zM51 50h-31.852l25.583-29.727c1.747 2.292 2.891 5.084 3.189 8.159l0.327 3.372 3.38 0.232c4.695 0.323 8.373 4.26 8.373 8.964 0 4.963-4.037 9-9 9z" fill="#000000" />
</svg>
