<?xml version="1.0" encoding="utf-8"?>
<!-- Generated by IcoMoon.io -->
<!DOCTYPE svg PUBLIC "-//W3C//DTD SVG 1.1//EN" "http://www.w3.org/Graphics/SVG/1.1/DTD/svg11.dtd">
<svg version="1.1" xmlns="http://www.w3.org/2000/svg" xmlns:xlink="http://www.w3.org/1999/xlink" width="64" height="64" viewBox="0 0 64 64">
	<path d="M51.901 19.921c-0.983-10.128-9.515-18.046-19.901-18.046-11.045 0-20 8.955-20 20v4h-2c-5.523 0-10 4.477-10 10 0 5.522 4.477 10 10 10h20v9.252l-6.695-5.761-2.609 3.031 11.304 9.728 11.305-9.729-2.609-3.031-6.696 5.762v-9.252h17c7.18 0 13-5.82 13-13 0-6.875-5.341-12.49-12.099-12.954zM51 41.875h-17v-15.918h-4v15.918h-20c-3.308 0-6-2.692-6-6s2.692-6 6-6h6v-8c0-8.822 7.178-16 16-16 8.277 0 15.122 6.204 15.92 14.432l0.327 3.372 3.38 0.232c4.695 0.323 8.373 4.26 8.373 8.964 0 4.963-4.037 9-9 9z" fill="#000000" />
</svg>
