<?xml version="1.0" encoding="utf-8"?>
<!-- Generated by IcoMoon.io -->
<!DOCTYPE svg PUBLIC "-//W3C//DTD SVG 1.1//EN" "http://www.w3.org/Graphics/SVG/1.1/DTD/svg11.dtd">
<svg version="1.1" xmlns="http://www.w3.org/2000/svg" xmlns:xlink="http://www.w3.org/1999/xlink" width="64" height="64" viewBox="0 0 64 64">
	<path d="M36.015 32c0 2.217-1.798 4.015-4.015 4.015s-4.015-1.798-4.015-4.015c0-2.217 1.798-4.015 4.015-4.015 2.217 0 4.015 1.798 4.015 4.015z" fill="#000000" />
	<path d="M53 34v-4l-3.053-0.624c-0.424-2.916-1.558-5.741-3.401-8.211l1.718-2.6-2.828-2.828-2.6 1.718c-2.47-1.844-5.295-2.978-8.211-3.402l-0.625-3.053h-4l-0.624 3.053c-2.916 0.424-5.741 1.557-8.211 3.402l-2.6-1.718-2.828 2.828 1.718 2.6c-1.844 2.47-2.978 5.295-3.401 8.211l-3.054 0.624v4l3.053 0.624c0.424 2.916 1.557 5.741 3.401 8.211l-1.718 2.6 2.828 2.828 2.6-1.718c2.47 1.844 5.295 2.977 8.211 3.401l0.625 3.054h4l0.624-3.053c2.916-0.424 5.742-1.557 8.212-3.401l2.6 1.718 2.828-2.828-1.718-2.6c1.844-2.47 2.978-5.295 3.401-8.212l3.053-0.624zM42.011 42.012c-2.673 2.673-6.229 4.146-10.010 4.146-3.782 0-7.337-1.473-10.011-4.146-2.674-2.674-4.147-6.229-4.147-10.011 0-3.781 1.472-7.337 4.146-10.010 2.674-2.674 6.23-4.147 10.011-4.147s7.337 1.473 10.011 4.147c5.52 5.519 5.52 14.5 0 20.021z" fill="#000000" />
</svg>
