<?xml version="1.0" encoding="utf-8"?>
<!-- Generated by IcoMoon.io -->
<!DOCTYPE svg PUBLIC "-//W3C//DTD SVG 1.1//EN" "http://www.w3.org/Graphics/SVG/1.1/DTD/svg11.dtd">
<svg version="1.1" xmlns="http://www.w3.org/2000/svg" xmlns:xlink="http://www.w3.org/1999/xlink" width="64" height="64" viewBox="0 0 64 64">
	<path d="M36.096 4h-28.096v56h48v-38.872l-19.904-17.128zM35.95 9.152l12.607 10.848h-12.607v-10.848zM52 56h-40v-48h19.95v11.211c-4.393 0.014-7.95 3.578-7.95 7.974v0.815h4v-0.815c0-2.192 1.783-3.975 3.975-3.975s3.975 1.783 3.975 3.975v4.815h-15.95v16h24v-16h-4.050v-4.815c0-1.136-0.253-2.207-0.681-3.185h12.731v32zM40 36v8h-16v-8h16z" fill="#000000" />
</svg>
