<?xml version="1.0" encoding="utf-8"?>
<!-- Generated by IcoMoon.io -->
<!DOCTYPE svg PUBLIC "-//W3C//DTD SVG 1.1//EN" "http://www.w3.org/Graphics/SVG/1.1/DTD/svg11.dtd">
<svg version="1.1" xmlns="http://www.w3.org/2000/svg" xmlns:xlink="http://www.w3.org/1999/xlink" width="64" height="64" viewBox="0 0 64 64">
	<path d="M4 4v56h56v-56h-56zM56 8v27.066l-13.913-11.973c-2.433-2.094-6.293-1.985-8.604 0.243l-14.99 14.448c-0.834 0.806-2.334 0.847-3.212 0.088l-7.281-6.287v-23.585h48zM8 56v-19.13l4.666 4.029c1.168 1.008 2.665 1.508 4.162 1.508 1.619 0 3.239-0.585 4.44-1.742l14.99-14.449c0.836-0.806 2.341-0.848 3.22-0.091l16.522 14.218v15.657h-48z" fill="#000000" />
	<path d="M24 20.015c0 2.217-1.798 4.015-4.015 4.015s-4.015-1.798-4.015-4.015c0-2.217 1.798-4.015 4.015-4.015 2.217 0 4.015 1.798 4.015 4.015z" fill="#000000" />
</svg>
