<?xml version="1.0" encoding="utf-8"?>
<!-- Generated by IcoMoon.io -->
<!DOCTYPE svg PUBLIC "-//W3C//DTD SVG 1.1//EN" "http://www.w3.org/Graphics/SVG/1.1/DTD/svg11.dtd">
<svg version="1.1" xmlns="http://www.w3.org/2000/svg" xmlns:xlink="http://www.w3.org/1999/xlink" width="64" height="64" viewBox="0 0 64 64">
	<path d="M32 12c-8.837 0-16 7.163-16 16 0 5.916 3.219 11.068 7.992 13.837v6.139c0 4.443 3.56 8.023 8.003 8.023s8.013-3.581 8.013-8.023v-6.139c4.773-2.769 7.992-7.921 7.992-13.837 0-8.837-7.163-16-16-16zM31.995 52c-1.889 0-3.419-1.258-3.861-3h7.726c-0.455 1.721-2.007 3-3.865 3zM36.008 45h-8.016v-2h8.016v2zM38.001 38.377l-1.074 0.623h-9.854l-1.074-0.623c-3.7-2.146-5.999-6.123-5.999-10.377 0-6.617 5.383-12 12-12s12 5.383 12 12c0 4.254-2.299 8.231-5.999 10.377z" fill="#000000" />
	<path d="M53.094 38.969c0 1.105-0.895 2-2 2s-2-0.895-2-2c0-1.105 0.895-2 2-2 1.105 0 2 0.895 2 2z" fill="#000000" />
	<path d="M55.891 30.281c0 1.105-0.895 2-2 2s-2-0.895-2-2c0-1.105 0.895-2 2-2 1.105 0 2 0.895 2 2z" fill="#000000" />
	<path d="M54.922 21.172c0 1.105-0.895 2-2 2s-2-0.895-2-2c0-1.105 0.895-2 2-2 1.105 0 2 0.895 2 2z" fill="#000000" />
	<path d="M50.344 13.25c0 1.105-0.895 2-2 2s-2-0.895-2-2c0-1.105 0.895-2 2-2 1.105 0 2 0.895 2 2z" fill="#000000" />
	<path d="M42.906 7.891c0 1.105-0.895 2-2 2s-2-0.895-2-2c0-1.105 0.895-2 2-2 1.105 0 2 0.895 2 2z" fill="#000000" />
	<path d="M33.984 6c0 1.105-0.895 2-2 2s-2-0.895-2-2c0-1.105 0.895-2 2-2 1.105 0 2 0.895 2 2z" fill="#000000" />
	<path d="M25.031 7.906c0 1.105-0.895 2-2 2s-2-0.895-2-2c0-1.105 0.895-2 2-2 1.105 0 2 0.895 2 2z" fill="#000000" />
	<path d="M17.641 13.297c0 1.105-0.895 2-2 2s-2-0.895-2-2c0-1.105 0.895-2 2-2 1.105 0 2 0.895 2 2z" fill="#000000" />
	<path d="M13.047 21.219c0 1.105-0.895 2-2 2s-2-0.895-2-2c0-1.105 0.895-2 2-2 1.105 0 2 0.895 2 2z" fill="#000000" />
	<path d="M12.125 30.328c0 1.105-0.895 2-2 2s-2-0.895-2-2c0-1.105 0.895-2 2-2 1.105 0 2 0.895 2 2z" fill="#000000" />
	<path d="M14.953 39.016c0 1.105-0.895 2-2 2s-2-0.895-2-2c0-1.105 0.895-2 2-2 1.105 0 2 0.895 2 2z" fill="#000000" />
</svg>
