<?xml version="1.0" encoding="utf-8"?>
<!-- Generated by IcoMoon.io -->
<!DOCTYPE svg PUBLIC "-//W3C//DTD SVG 1.1//EN" "http://www.w3.org/Graphics/SVG/1.1/DTD/svg11.dtd">
<svg version="1.1" xmlns="http://www.w3.org/2000/svg" xmlns:xlink="http://www.w3.org/1999/xlink" width="64" height="64" viewBox="0 0 64 64">
	<path d="M48.004 15.999h-11.999c-5.223 0-9.654 3.342-11.303 8h-8.697c-6.628 0-12 5.373-12 12.001 0 6.627 5.373 12.001 12.001 12.001h11.998c5.222 0 9.654-3.342 11.303-8h8.697c6.628 0 12.001-5.373 12.001-12.001s-5.374-12.001-12.001-12.001zM36.004 36.001c-4.411 0-8-3.589-8-8.001 0 0 0-0.001 0-0.001 4.411 0 8 3.589 8 8.001 0.001 0 0 0.001 0 0.001zM28.004 44.001h-11.999c-4.412 0-8.001-3.589-8.001-8.001s3.589-8.001 8.001-8.001h7.999c0 0 0 0.001 0 0.001 0 6.273 4.815 11.414 10.949 11.948-1.377 2.417-3.974 4.053-6.949 4.053zM48.004 36.001h-7.999c0 0 0-0.001 0-0.001 0-6.273-4.815-11.414-10.949-11.948 1.378-2.417 3.975-4.053 6.95-4.053h11.998c4.412 0 8.001 3.589 8.001 8.001s-3.59 8.001-8.001 8.001z" fill="#000000" />
</svg>
