<?xml version="1.0" encoding="utf-8"?>
<!-- Generated by IcoMoon.io -->
<!DOCTYPE svg PUBLIC "-//W3C//DTD SVG 1.1//EN" "http://www.w3.org/Graphics/SVG/1.1/DTD/svg11.dtd">
<svg version="1.1" xmlns="http://www.w3.org/2000/svg" xmlns:xlink="http://www.w3.org/1999/xlink" width="64" height="64" viewBox="0 0 64 64">
	<path d="M34.902 4.964c-0.79-0.633-1.834-0.949-2.877-0.949-1.037 0-2.002 0.313-2.79 0.939l-25.235 19.046v35.994h56v-35.994l-25.098-19.036zM31.68 8.15c0.028-0.017 0.153-0.066 0.345-0.066 0.194 0 0.319 0.050 0.333 0.056l21.105 15.86h-42.895l21.112-15.85zM51.383 28l-18.834 14.094c-0.085 0.058-0.15 0.107-0.231 0.172-0.025 0.014-0.132 0.056-0.296 0.056-0.168 0-0.279-0.043-0.285-0.044-0.080-0.066-0.163-0.129-0.249-0.189l-19.016-14.089h38.911zM56 55.994h-48v-26.159l21.153 15.586c0.786 0.646 1.828 0.97 2.869 0.97 1.023 0 2.046-0.312 2.826-0.939l21.152-15.681v26.223z" fill="#000000" />
</svg>
