<?xml version="1.0" encoding="utf-8"?>
<!-- Generated by IcoMoon.io -->
<!DOCTYPE svg PUBLIC "-//W3C//DTD SVG 1.1//EN" "http://www.w3.org/Graphics/SVG/1.1/DTD/svg11.dtd">
<svg version="1.1" xmlns="http://www.w3.org/2000/svg" xmlns:xlink="http://www.w3.org/1999/xlink" width="64" height="64" viewBox="0 0 64 64">
	<path d="M4 16v35.994h56v-35.994h-56zM51.383 20l-18.834 14.094c-0.085 0.058-0.15 0.107-0.231 0.172-0.025 0.014-0.132 0.056-0.296 0.056-0.168 0-0.279-0.043-0.285-0.044-0.080-0.066-0.163-0.129-0.249-0.189l-19.016-14.089h38.911zM56 47.994h-48v-26.159l21.153 15.586c0.786 0.646 1.828 0.97 2.869 0.97 1.023 0 2.046-0.312 2.826-0.939l21.152-15.681v26.223z" fill="#000000" />
</svg>
