<?xml version="1.0" encoding="utf-8"?>
<!-- Generated by IcoMoon.io -->
<!DOCTYPE svg PUBLIC "-//W3C//DTD SVG 1.1//EN" "http://www.w3.org/Graphics/SVG/1.1/DTD/svg11.dtd">
<svg version="1.1" xmlns="http://www.w3.org/2000/svg" xmlns:xlink="http://www.w3.org/1999/xlink" width="64" height="64" viewBox="0 0 64 64">
	<path d="M44.839 9.561c-3.545-3.545-8.192-5.318-12.839-5.318s-9.294 1.773-12.84 5.318c-7.090 7.090-7.091 18.587 0.001 25.678 3.036 3.036 6.88 4.761 10.839 5.198v19.813h4v-19.813c3.959-0.436 7.804-2.162 10.839-5.197 7.092-7.091 7.091-18.589 0-25.679zM32.001 36.557c-3.782 0-7.337-1.473-10.011-4.146-2.674-2.674-4.147-6.229-4.147-10.011 0-3.781 1.473-7.336 4.146-10.010 2.674-2.675 6.229-4.147 10.011-4.147 3.781 0 7.337 1.473 10.011 4.147 2.674 2.674 4.146 6.229 4.147 10.011 0 3.782-1.472 7.337-4.147 10.011-2.674 2.673-6.229 4.145-10.010 4.145z" fill="#000000" />
	<path d="M36.015 22.4c0 2.217-1.798 4.015-4.015 4.015s-4.015-1.798-4.015-4.015c0-2.217 1.798-4.015 4.015-4.015 2.217 0 4.015 1.798 4.015 4.015z" fill="#000000" />
</svg>
