<?xml version="1.0" encoding="utf-8"?>
<!-- Generated by IcoMoon.io -->
<!DOCTYPE svg PUBLIC "-//W3C//DTD SVG 1.1//EN" "http://www.w3.org/Graphics/SVG/1.1/DTD/svg11.dtd">
<svg version="1.1" xmlns="http://www.w3.org/2000/svg" xmlns:xlink="http://www.w3.org/1999/xlink" width="64" height="64" viewBox="0 0 64 64">
	<path d="M52.014 32h-4c-0.017 8.825-7.194 16-16.014 16-3.262 0-6.297-0.988-8.829-2.674l2.63-3.056c1.807 1.091 3.922 1.73 6.199 1.73 6.662 0 12.016-5.369 12.016-12.031v-10.865l7.603-8.834-3.032-2.609-4.619 5.367c-0.485-6.205-5.629-11.013-11.968-11.013-6.662 0-12 5.307-12 11.969v15.984c0 2.933 1.036 5.615 2.763 7.699l-2.612 3.035c-2.563-2.838-4.141-6.584-4.149-10.702h-4c0.008 5.329 2.115 10.166 5.523 13.754l-5.143 5.976 3.032 2.609 5.144-5.977c2.732 1.919 5.95 3.187 9.443 3.536v4.171h-10.001v4h24v-4h-10v-4.171c10.091-1.006 17.998-9.543 18.014-19.898zM40.016 31.968c0 4.429-3.596 8.032-8.016 8.032-1.267 0-2.462-0.305-3.528-0.834l11.544-13.414v6.216zM24 31.969v-15.985c0-4.469 3.514-7.969 8-7.969 4.495 0 8.016 3.5 8.016 7.969v3.635l-14.574 16.935c-0.906-1.301-1.442-2.88-1.442-4.585z" fill="#000000" />
</svg>
