<?xml version="1.0" encoding="utf-8"?>
<!-- Generated by IcoMoon.io -->
<!DOCTYPE svg PUBLIC "-//W3C//DTD SVG 1.1//EN" "http://www.w3.org/Graphics/SVG/1.1/DTD/svg11.dtd">
<svg version="1.1" xmlns="http://www.w3.org/2000/svg" xmlns:xlink="http://www.w3.org/1999/xlink" width="64" height="64" viewBox="0 0 64 64">
	<path d="M32 44c6.662 0 12.016-5.369 12.016-12.031v-15.985c0-6.662-5.354-11.969-12.016-11.969s-12 5.307-12 11.969v15.984c0 6.663 5.338 12.032 12 12.032zM24 15.984c0-4.469 3.514-7.969 8-7.969 4.495 0 8.016 3.5 8.016 7.969v15.984c0 4.429-3.596 8.032-8.016 8.032-4.411 0-8-3.603-8-8.031v-15.985z" fill="#000000" />
	<path d="M52.014 32h-4c-0.017 8.825-7.194 16-16.014 16-8.812 0-15.981-7.175-15.998-16h-4c0.016 10.354 7.916 18.891 17.998 19.899v4.171h-10v4h24v-4h-10v-4.171c10.091-1.007 17.998-9.544 18.014-19.899z" fill="#000000" />
</svg>
