<?xml version="1.0" encoding="utf-8"?>
<!-- Generated by IcoMoon.io -->
<!DOCTYPE svg PUBLIC "-//W3C//DTD SVG 1.1//EN" "http://www.w3.org/Graphics/SVG/1.1/DTD/svg11.dtd">
<svg version="1.1" xmlns="http://www.w3.org/2000/svg" xmlns:xlink="http://www.w3.org/1999/xlink" width="64" height="64" viewBox="0 0 64 64">
	<path d="M36 59.193c-4.969 0-10-3.585-10-10.438l-0.047-25.997c-0.009-4.106 2.97-6.286 5.917-6.315 0.021 0 0.042 0 0.062 0 2.97 0 5.993 2.145 6.068 6.276v18.036h-4v-18c-0.041-2.22-1.764-2.34-2.090-2.312-0.949 0.009-1.961 0.621-1.958 2.308l0.047 26c0 4.451 3.014 6.441 6 6.441s6-1.99 6-6.438v-30c0-3.103-1.063-5.684-3.075-7.464-1.81-1.601-4.269-2.483-6.924-2.483-4.816 0-10 3.113-10 9.949v26h-4v-26c0-9.158 7.043-13.949 14-13.949s14 4.792 14 13.949v30c0 6.852-5.030 10.437-10 10.437z" fill="#000000" />
</svg>
