<?xml version="1.0" encoding="utf-8"?>
<!-- Generated by IcoMoon.io -->
<!DOCTYPE svg PUBLIC "-//W3C//DTD SVG 1.1//EN" "http://www.w3.org/Graphics/SVG/1.1/DTD/svg11.dtd">
<svg version="1.1" xmlns="http://www.w3.org/2000/svg" xmlns:xlink="http://www.w3.org/1999/xlink" width="64" height="64" viewBox="0 0 64 64">
	<path d="M60 24h-8v-12h-48v40h48v-12h8v-16zM48 48h-40v-14h8.181c0.952 5.593 5.81 9.855 11.674 9.855h4.145v-3.855h6c1.104 0 2-0.896 2-2s-0.896-2-2-2h-6v-8h6c1.104 0 2-0.896 2-2s-0.896-2-2-2h-6v-3.855h-4.145c-5.865 0-10.722 4.262-11.674 9.855h-8.181v-14h40v32zM27.855 24.145h0.145v15.711h-0.145c-4.331-0.001-7.855-3.525-7.855-7.856s3.524-7.855 7.855-7.855zM56 36h-4v-8h4v8z" fill="#000000" />
</svg>
