<?xml version="1.0" encoding="utf-8"?>
<!-- Generated by IcoMoon.io -->
<!DOCTYPE svg PUBLIC "-//W3C//DTD SVG 1.1//EN" "http://www.w3.org/Graphics/SVG/1.1/DTD/svg11.dtd">
<svg version="1.1" xmlns="http://www.w3.org/2000/svg" xmlns:xlink="http://www.w3.org/1999/xlink" width="64" height="64" viewBox="0 0 64 64">
	<path d="M57.893 17.037l-10.443-1.373-2.915 10.122 3.268 0.94 1.389-4.823c1.756 2.966 2.786 6.408 2.786 10.098 0 11.015-8.962 19.976-19.977 19.976s-19.978-8.961-19.978-19.977c0-11.016 8.962-19.977 19.977-19.977 2.051 0 4.030 0.313 5.894 0.889l1.182-3.827c-2.237-0.689-4.613-1.062-7.076-1.062-13.243 0-23.977 10.734-23.977 23.977 0 13.241 10.734 23.976 23.977 23.976 13.241 0 23.977-10.735 23.977-23.976 0-4.471-1.239-8.647-3.37-12.229l4.842 0.637 0.444-3.371z" fill="#000000" />
</svg>
