<?xml version="1.0" encoding="utf-8"?>
<!-- Generated by IcoMoon.io -->
<!DOCTYPE svg PUBLIC "-//W3C//DTD SVG 1.1//EN" "http://www.w3.org/Graphics/SVG/1.1/DTD/svg11.dtd">
<svg version="1.1" xmlns="http://www.w3.org/2000/svg" xmlns:xlink="http://www.w3.org/1999/xlink" width="64" height="64" viewBox="0 0 64 64">
	<path d="M60.088 52.484l-16.146-13.894c2.552-3.58 4.058-7.958 4.058-12.69 0-12.096-9.806-21.9-21.9-21.9-12.096 0-21.9 9.804-21.9 21.9 0 12.094 9.805 21.899 21.9 21.899 5.923 0 11.293-2.356 15.235-6.176l16.143 13.892 2.61-3.031zM26.1 43.8c-9.87 0-17.9-8.030-17.9-17.899 0-9.87 8.030-17.9 17.9-17.9s17.9 8.029 17.9 17.899c0 9.87-8.030 17.9-17.9 17.9z" fill="#000000" />
</svg>
