<?xml version="1.0" encoding="utf-8"?>
<!-- Generated by IcoMoon.io -->
<!DOCTYPE svg PUBLIC "-//W3C//DTD SVG 1.1//EN" "http://www.w3.org/Graphics/SVG/1.1/DTD/svg11.dtd">
<svg version="1.1" xmlns="http://www.w3.org/2000/svg" xmlns:xlink="http://www.w3.org/1999/xlink" width="64" height="64" viewBox="0 0 64 64">
	<path d="M7.001 18.125c0-3.25 0.748-5.788 2.248-7.624 1.5-1.831 3.143-3.189 4.939-4.064 1.79-0.875 4.227-1.521 7.309-1.938h14.379v0.249c0 0.834-0.565 1.378-1.689 1.628s-2.187 0.457-3.189 0.625c-0.331 0-0.768 0.020-1.312 0.061-0.544 0.046-0.895 0.148-1.063 0.315 1.831 0.916 3.001 2.167 3.499 3.749 0.504 1.582 0.753 3.499 0.753 5.748 0 2.67-0.417 4.751-1.251 6.251-0.834 1.5-1.831 2.711-3.001 3.627-0.666 0.666-1.231 1.231-1.689 1.689s-0.687 1.017-0.687 1.684c0 0.671 0.315 1.312 0.941 1.938 0.626 0.626 1.353 1.312 2.187 2.065 1.414 1.165 2.853 2.625 4.313 4.374 1.455 1.75 2.187 3.998 2.187 6.75 0 5.834-2.421 9.878-7.253 12.126-1.918 0.916-3.749 1.5-5.498 1.75-1.75 0.249-3.042 0.376-3.876 0.376-0.168 0-0.27-0.020-0.31-0.066-0.046-0.041-0.107-0.061-0.188-0.061l-0.249 0.127c-0.585 0-1.668-0.081-3.25-0.249-1.587-0.168-3.209-0.646-4.878-1.439s-3.143-1.958-4.435-3.499-1.938-3.691-1.938-6.443c0-2.665 0.707-4.771 2.126-6.312 1.414-1.541 3.062-2.706 4.934-3.499 1.877-0.793 3.769-1.292 5.692-1.5 1.912-0.209 3.372-0.31 4.374-0.31h0.122c-0.585-0.753-0.997-1.5-1.246-2.253-0.254-0.748-0.422-1.414-0.504-1.999-0.168-0.666-0.209-1.333-0.122-1.999h-0.875c-0.753 0-1.775-0.107-3.062-0.315-1.297-0.203-2.563-0.727-3.815-1.561-3.082-1.833-4.623-5.169-4.623-10.001zM30.123 46.374c-0.168-2.167-1.063-3.916-2.686-5.249-1.628-1.333-3.774-1.999-6.439-1.999h-0.997c-1.419 0.081-2.731 0.376-3.942 0.875-1.205 0.498-2.268 1.165-3.184 1.999-1.918 1.75-2.792 3.708-2.625 5.875 0.163 2.167 1.266 3.835 3.311 5 2.040 1.17 4.517 1.668 7.436 1.5 2.833-0.168 5.107-1.002 6.816-2.497 1.705-1.501 2.478-3.337 2.31-5.504zM26.375 15.124c-0.753-2.665-1.729-4.456-2.94-5.376-1.205-0.916-2.772-1.373-4.684-1.373-0.504 0-0.921 0.046-1.251 0.127-1.668 0.498-2.874 1.79-3.627 3.876-0.666 2.080-0.707 4.293-0.122 6.622 0.58 2.167 1.561 3.937 2.935 5.315 1.378 1.373 2.853 2.060 4.44 2.060 0.498 0 0.875-0.041 1.124-0.122 1.75-0.504 3.062-1.856 3.937-4.064 0.874-2.208 0.935-4.563 0.188-7.065zM60 25.998v5.875h-9.374v9.379h-5.875v-9.379h-9.379v-5.875h9.379v-9.374h5.875v9.374h9.374z" fill="#000000" />
</svg>
