<?xml version="1.0" encoding="utf-8"?>
<!-- Generated by IcoMoon.io -->
<!DOCTYPE svg PUBLIC "-//W3C//DTD SVG 1.1//EN" "http://www.w3.org/Graphics/SVG/1.1/DTD/svg11.dtd">
<svg version="1.1" xmlns="http://www.w3.org/2000/svg" xmlns:xlink="http://www.w3.org/1999/xlink" width="64" height="64" viewBox="0 0 64 64">
	<path d="M16.695 10.411c0 1.661-0.582 3.069-1.747 4.228-1.16 1.165-2.734 1.742-4.724 1.742-1.909 0-3.423-0.577-4.542-1.742-1.125-1.16-1.682-2.567-1.682-4.228s0.577-3.069 1.742-4.233c1.16-1.16 2.694-1.742 4.603-1.742s3.423 0.582 4.542 1.742c1.119 1.164 1.722 2.572 1.808 4.233zM4.375 59.565v-38.455h11.945v38.454h-11.945zM23.414 33.431c0-2.405-0.025-4.623-0.066-6.654-0.041-2.036-0.101-3.924-0.182-5.666h10.325l0.623 5.352h0.248c0.749-1.246 2.096-2.593 4.046-4.046 1.95-1.448 4.542-2.177 7.778-2.177 3.98 0 7.282 1.332 9.895 3.985s3.919 6.841 3.919 12.568v22.772h-11.945v-21.278c0-2.491-0.481-4.502-1.433-6.036s-2.512-2.304-4.669-2.304c-1.656 0-2.983 0.456-3.98 1.372-0.998 0.911-1.701 1.95-2.117 3.109-0.167 0.415-0.268 0.871-0.309 1.367-0.046 0.501-0.061 1.038-0.061 1.62v22.149h-12.072v-26.133z" fill="#000000" />
</svg>
