<?xml version="1.0" encoding="utf-8"?>
<!-- Generated by IcoMoon.io -->
<!DOCTYPE svg PUBLIC "-//W3C//DTD SVG 1.1//EN" "http://www.w3.org/Graphics/SVG/1.1/DTD/svg11.dtd">
<svg version="1.1" xmlns="http://www.w3.org/2000/svg" xmlns:xlink="http://www.w3.org/1999/xlink" width="64" height="64" viewBox="0 0 64 64">
	<path d="M49.044 56.839c-1.139 0.649-2.254 1.154-3.349 1.521-1.095 0.362-2.13 0.669-3.101 0.912-1.952 0.485-4.018 0.728-6.212 0.728-2.353 0-4.587-0.322-6.698-0.971-0.971-0.406-1.883-0.812-2.735-1.219-0.852-0.406-1.605-0.931-2.254-1.58-1.461-1.298-2.398-2.601-2.799-3.899-0.57-1.219-0.852-3.166-0.852-5.841v-19.603h-6.088v-7.916c2.19-0.728 4.057-1.744 5.598-3.042 1.541-1.298 2.804-2.923 3.775-4.87 0.406-0.892 0.773-1.947 1.095-3.166 0.327-1.219 0.57-2.517 0.733-3.894h7.912v14.119h13.148v8.769h-13.149v14.367c0 3.408 0.163 5.479 0.49 6.207 0.401 0.976 1.050 1.704 1.947 2.195 1.134 0.808 2.512 1.214 4.137 1.214 2.759 0 5.558-0.931 8.402-2.799v8.768z" fill="#000000" />
</svg>
