<?xml version="1.0" encoding="utf-8"?>
<!-- Generated by IcoMoon.io -->
<!DOCTYPE svg PUBLIC "-//W3C//DTD SVG 1.1//EN" "http://www.w3.org/Graphics/SVG/1.1/DTD/svg11.dtd">
<svg version="1.1" xmlns="http://www.w3.org/2000/svg" xmlns:xlink="http://www.w3.org/1999/xlink" width="64" height="64" viewBox="0 0 64 64">
	<path d="M16.194 44.447c-1.661 0-3.236-0.334-4.73-0.998-1.494-0.663-2.8-1.555-3.919-2.674-1.119-1.124-1.99-2.431-2.613-3.924-0.623-1.489-0.932-3.109-0.932-4.851 0-1.742 0.309-3.362 0.932-4.851 0.623-1.494 1.494-2.8 2.613-3.924 1.119-1.119 2.426-2.010 3.919-2.674s3.069-0.998 4.73-0.998 3.236 0.334 4.73 0.998c1.494 0.663 2.8 1.555 3.919 2.674 1.119 1.124 1.99 2.431 2.613 3.924 0.623 1.489 0.937 3.109 0.937 4.851 0 1.742-0.314 3.362-0.937 4.851-0.623 1.494-1.494 2.8-2.613 3.924-1.119 1.119-2.426 2.010-3.919 2.674-1.495 0.663-3.070 0.998-4.73 0.998zM47.806 44.447c-1.661 0-3.236-0.334-4.73-0.998-1.494-0.663-2.8-1.555-3.919-2.674-1.124-1.124-1.995-2.431-2.618-3.924-0.618-1.489-0.932-3.109-0.932-4.851 0-1.742 0.314-3.362 0.932-4.851 0.623-1.494 1.494-2.8 2.618-3.924 1.119-1.119 2.426-2.010 3.919-2.674s3.069-0.998 4.73-0.998c1.656 0 3.236 0.334 4.724 0.998 1.494 0.663 2.8 1.555 3.924 2.674 1.119 1.124 1.99 2.431 2.613 3.924 0.624 1.489 0.933 3.109 0.933 4.851 0 1.742-0.309 3.362-0.932 4.851-0.623 1.494-1.494 2.8-2.613 3.924-1.124 1.119-2.431 2.010-3.924 2.674-1.489 0.663-3.069 0.998-4.725 0.998z" fill="#000000" />
</svg>
