<?xml version="1.0" encoding="utf-8"?>
<!-- Generated by IcoMoon.io -->
<!DOCTYPE svg PUBLIC "-//W3C//DTD SVG 1.1//EN" "http://www.w3.org/Graphics/SVG/1.1/DTD/svg11.dtd">
<svg version="1.1" xmlns="http://www.w3.org/2000/svg" xmlns:xlink="http://www.w3.org/1999/xlink" width="64" height="64" viewBox="0 0 64 64">
	<path d="M55.492 21.652c1.382 1.541 2.477 3.269 3.289 5.176 0.813 1.908 1.219 4.117 1.219 6.633 0 3.651-0.446 6.737-1.342 9.253-0.892 2.516-2.066 4.587-3.527 6.207-1.461 1.625-3.066 2.903-4.81 3.834-1.749 0.936-3.453 1.605-5.112 2.011-1.664 0.406-3.225 0.649-4.686 0.728-1.461 0.084-2.556 0.124-3.289 0.124-0.485 0-1.199 0.020-2.13 0.059-0.936 0.040-1.967 0.059-3.106 0.059-1.134 0-2.17-0.020-3.101-0.059-0.936-0.040-1.645-0.059-2.13-0.059-0.733 0-1.828-0.040-3.289-0.124-1.461-0.079-3.027-0.322-4.686-0.728-1.664-0.406-3.368-1.075-5.112-2.011-1.749-0.931-3.349-2.209-4.81-3.834-1.461-1.62-2.64-3.69-3.532-6.207-0.892-2.516-1.338-5.602-1.338-9.253 0-2.516 0.406-4.726 1.219-6.633 0.807-1.907 1.902-3.636 3.284-5.176-0.079-0.243-0.144-0.812-0.183-1.704-0.040-0.892 0-1.947 0.124-3.165 0.119-1.219 0.342-2.576 0.669-4.077 0.322-1.501 0.773-2.982 1.337-4.443 1.055 0.163 2.313 0.485 3.775 0.971 1.219 0.406 2.68 1.055 4.384 1.952 1.704 0.892 3.611 2.026 5.721 3.408 0.892-0.248 2.026-0.426 3.408-0.55 1.382-0.124 2.799-0.183 4.26-0.183 1.461 0 2.883 0.059 4.26 0.183 1.382 0.124 2.516 0.302 3.413 0.55 2.105-1.382 4.017-2.516 5.721-3.408 1.704-0.897 3.165-1.546 4.379-1.952 1.461-0.485 2.72-0.807 3.775-0.971 0.57 1.461 1.015 2.942 1.342 4.443 0.322 1.501 0.545 2.858 0.669 4.077 0.119 1.219 0.159 2.274 0.119 3.165-0.040 0.892-0.1 1.461-0.184 1.704zM32.121 52.939c2.838 0 5.518-0.124 8.035-0.367 2.516-0.243 4.686-0.788 6.514-1.64 1.823-0.852 3.264-2.11 4.32-3.775 1.055-1.664 1.585-3.874 1.585-6.638 0-1.377-0.267-2.675-0.793-3.893-0.53-1.219-1.362-2.353-2.497-3.408-0.892-0.812-1.967-1.357-3.225-1.645-1.258-0.282-2.62-0.426-4.077-0.426-1.461 0-3.027 0.079-4.691 0.243-1.664 0.163-3.388 0.243-5.172 0.243h-0.243c-1.788 0-3.512-0.079-5.176-0.243s-3.225-0.243-4.686-0.243c-1.461 0-2.799 0.144-4.017 0.426-1.219 0.287-2.313 0.832-3.289 1.645-1.134 1.055-1.947 2.189-2.432 3.408s-0.728 2.516-0.728 3.893c0 2.764 0.525 4.973 1.58 6.638 1.055 1.664 2.497 2.923 4.32 3.775 1.828 0.852 3.978 1.397 6.454 1.64s5.132 0.367 7.975 0.367h0.243zM22.383 35.893c1.134 0 2.071 0.53 2.799 1.585 0.728 1.055 1.095 2.353 1.095 3.893 0 1.546-0.367 2.843-1.095 3.898-0.728 1.055-1.664 1.58-2.799 1.58-1.139 0-2.090-0.525-2.863-1.58s-1.154-2.353-1.154-3.898c0-1.541 0.381-2.838 1.154-3.893s1.723-1.585 2.863-1.585zM41.736 35.893c1.139 0 2.071 0.53 2.804 1.585 0.728 1.055 1.095 2.353 1.095 3.893 0 1.546-0.367 2.843-1.095 3.898-0.733 1.055-1.664 1.58-2.804 1.58-1.134 0-2.090-0.525-2.858-1.58-0.773-1.055-1.159-2.353-1.159-3.898 0-1.541 0.386-2.838 1.159-3.893 0.768-1.054 1.724-1.585 2.858-1.585z" fill="#000000" />
</svg>
