<?xml version="1.0" encoding="utf-8"?>
<!-- Generated by IcoMoon.io -->
<!DOCTYPE svg PUBLIC "-//W3C//DTD SVG 1.1//EN" "http://www.w3.org/Graphics/SVG/1.1/DTD/svg11.dtd">
<svg version="1.1" xmlns="http://www.w3.org/2000/svg" xmlns:xlink="http://www.w3.org/1999/xlink" width="64" height="64" viewBox="0 0 64 64">
	<path d="M32.002 59.938c-3.9 0-7.533-0.727-10.899-2.185s-6.332-3.46-8.888-6.011-4.562-5.507-6.026-8.868c-1.462-3.361-2.189-6.989-2.189-10.874s0.727-7.509 2.19-10.875c1.463-3.356 3.47-6.317 6.026-8.868s5.521-4.553 8.888-6.011 6.999-2.185 10.899-2.185c3.895 0 7.528 0.727 10.895 2.185 3.366 1.458 6.327 3.46 8.888 6.011 2.556 2.551 4.562 5.512 6.026 8.868 1.456 3.366 2.188 6.99 2.188 10.875s-0.732 7.513-2.19 10.875c-1.463 3.361-3.47 6.317-6.026 8.868-2.561 2.551-5.521 4.553-8.888 6.011-3.365 1.458-6.998 2.184-10.894 2.184zM33.663 32.124c0.321-0.163 0.608-0.247 0.85-0.247-0.242-0.648-0.529-1.335-0.85-2.061-0.326-0.732-0.687-1.419-1.092-2.066-3.080 0.969-6.055 1.681-8.932 2.126-2.872 0.445-5.437 0.771-7.696 0.974-2.259 0.203-4.088 0.302-5.482 0.302s-2.13 0-2.21 0v0.848c0 3.080 0.539 5.971 1.611 8.685 1.078 2.714 2.531 5.126 4.365 7.227 1.295-2.185 2.916-4.291 4.859-6.312 1.616-1.705 3.643-3.445 6.075-5.225 2.427-1.78 5.26-3.199 8.502-4.251zM30.658 24.106c-1.048-1.784-2.076-3.505-3.089-5.166-1.008-1.661-1.918-3.099-2.724-4.31-0.806-1.216-1.493-2.21-2.056-2.976-0.568-0.771-0.89-1.196-0.969-1.28-3.312 1.621-6.12 3.87-8.423 6.742-2.299 2.877-3.856 6.179-4.661 9.901 0.163 0 0.85 0 2.061 0s2.822-0.099 4.844-0.302c2.017-0.203 4.32-0.504 6.905-0.91 2.581-0.404 5.289-0.972 8.112-1.699zM17.242 50.71c-0.084-0.079-0.163-0.143-0.247-0.183-0.079-0.040-0.163-0.104-0.242-0.183 0.163 0.163 0.282 0.242 0.366 0.242l0.123 0.124zM27.143 40.26c-2.392 1.7-4.315 3.322-5.774 4.859-1.458 1.542-2.837 3.401-4.127 5.591 2.101 1.621 4.389 2.872 6.861 3.767 2.472 0.89 5.081 1.335 7.835 1.335 3.159 0 6.278-0.648 9.357-1.943-0.163-1.053-0.652-3.238-1.458-6.559-0.811-3.322-2.027-7.167-3.648-11.542l-0.119 0.119c-3.563 1.214-6.539 2.672-8.927 4.373zM40.564 9.647c-2.669-1.053-5.546-1.577-8.626-1.577-1.943 0-3.806 0.242-5.586 0.727 0.079 0.163 0.405 0.608 0.969 1.335 0.568 0.732 1.275 1.725 2.126 2.976 0.855 1.26 1.784 2.694 2.798 4.315 1.008 1.621 2.002 3.361 2.976 5.225 2.264-0.811 4.192-1.72 5.769-2.734 1.582-1.013 2.857-1.948 3.826-2.798 0.974-0.85 1.948-1.878 2.916-3.094-2.106-1.863-4.494-3.322-7.168-4.375zM37.039 26.291c0.489 0.974 1.013 2.106 1.582 3.401 0.163 0.163 0.262 0.366 0.302 0.608 0.040 0.242 0.143 0.445 0.306 0.608 2.022-0.242 4.009-0.346 5.951-0.306 1.943 0.044 3.683 0.143 5.225 0.306 1.537 0.163 2.793 0.346 3.767 0.544 0.969 0.203 1.498 0.306 1.577 0.306 0-2.832-0.484-5.526-1.458-8.077-0.969-2.556-2.269-4.839-3.885-6.866-1.053 1.216-2.106 2.308-3.159 3.282-1.053 0.969-2.432 2.002-4.132 3.094-1.701 1.093-3.728 2.126-6.076 3.1zM40.776 34.674c1.537 4.291 2.649 8.037 3.342 11.236 0.687 3.198 1.112 5.121 1.275 5.769 2.649-1.78 4.854-4.048 6.619-6.802 1.77-2.753 2.931-5.788 3.495-9.11-0.163-0.079-0.643-0.242-1.448-0.484-0.801-0.247-1.864-0.445-3.188-0.608s-2.852-0.287-4.582-0.366c-1.731-0.080-3.57 0.039-5.513 0.365z" fill="#000000" />
</svg>
