<?xml version="1.0" encoding="utf-8"?>
<!-- Generated by IcoMoon.io -->
<!DOCTYPE svg PUBLIC "-//W3C//DTD SVG 1.1//EN" "http://www.w3.org/Graphics/SVG/1.1/DTD/svg11.dtd">
<svg version="1.1" xmlns="http://www.w3.org/2000/svg" xmlns:xlink="http://www.w3.org/1999/xlink" width="64" height="64" viewBox="0 0 64 64">
	<path d="M28.185 40.977c-0.378 1.94-0.783 3.843-1.234 5.705-0.446 1.867-1.006 3.62-1.676 5.264-0.674 1.639-1.457 3.151-2.354 4.53-0.892 1.38-2.013 2.554-3.356 3.524-0.446-2.91-0.56-5.669-0.337-8.282 0.228-2.609 0.596-5.109 1.12-7.495 0.524-2.386 1.12-4.735 1.789-7.053 0.674-2.308 1.234-4.622 1.68-6.935-0.82-1.343-1.211-2.928-1.175-4.758 0.036-1.826 0.392-3.506 1.061-5.036 0.674-1.525 1.625-2.7 2.855-3.524 1.234-0.82 2.705-0.892 4.421-0.223 1.343 0.524 2.126 1.398 2.349 2.632 0.223 1.229 0.168 2.591-0.168 4.084-0.337 1.493-0.783 3.073-1.343 4.754-0.56 1.68-0.952 3.246-1.175 4.699-0.223 1.457-0.109 2.727 0.337 3.806 0.446 1.084 1.53 1.808 3.246 2.181 1.789 0.373 3.41 0.15 4.867-0.669 1.452-0.82 2.686-1.994 3.693-3.524 1.006-1.53 1.789-3.301 2.349-5.318 0.56-2.013 0.838-4.030 0.838-6.042s-0.26-3.934-0.783-5.764c-0.524-1.826-1.343-3.301-2.463-4.417-1.639-1.644-3.465-2.759-5.482-3.36-2.013-0.596-4.048-0.783-6.097-0.56-2.054 0.228-4.030 0.842-5.933 1.849-1.903 1.006-3.542 2.313-4.922 3.916-1.38 1.607-2.427 3.433-3.133 5.482-0.71 2.054-0.879 4.271-0.505 6.661 0.15 0.892 0.428 1.639 0.842 2.236 0.405 0.601 0.783 1.234 1.116 1.903 0.337 0.669 0.505 1.398 0.505 2.181s-0.337 1.776-1.006 2.964c-3.133-0.742-5.259-2.254-6.379-4.53-1.12-2.272-1.607-5.054-1.457-8.337 0.077-2.686 0.674-5.145 1.794-7.385 1.116-2.236 2.554-4.194 4.307-5.874s3.747-3.037 5.987-4.084c2.236-1.043 4.512-1.717 6.825-2.013 2.91-0.301 5.742-0.187 8.501 0.332 2.759 0.524 5.264 1.439 7.499 2.741 2.24 1.307 4.084 3.005 5.541 5.095 1.452 2.090 2.368 4.512 2.741 7.271 0.446 3.133 0.351 6.229-0.282 9.289s-1.717 5.801-3.242 8.223c-1.53 2.427-3.511 4.33-5.933 5.71-2.427 1.38-5.204 1.958-8.337 1.735-1.717-0.15-3.078-0.578-4.084-1.289-1.003-0.711-2.141-1.471-3.407-2.295z" fill="#000000" />
</svg>
