<?xml version="1.0" encoding="utf-8"?>
<!-- Generated by IcoMoon.io -->
<!DOCTYPE svg PUBLIC "-//W3C//DTD SVG 1.1//EN" "http://www.w3.org/Graphics/SVG/1.1/DTD/svg11.dtd">
<svg version="1.1" xmlns="http://www.w3.org/2000/svg" xmlns:xlink="http://www.w3.org/1999/xlink" width="64" height="64" viewBox="0 0 64 64">
	<path d="M60 14.652c-1.461 2.191-3.369 4.181-5.722 5.965v1.461c0 3.816-0.712 7.65-2.13 11.504-1.422 3.856-3.511 7.347-6.27 10.469-2.76 3.126-6.168 5.682-10.225 7.67-4.059 1.989-8.726 2.982-14.001 2.982-6.494 0.001-12.377-1.703-17.652-5.111 0.405 0.081 0.852 0.121 1.339 0.121s0.974 0 1.461 0c2.678 0 5.235-0.426 7.67-1.278 2.435-0.852 4.626-2.049 6.574-3.592-2.517-0.079-4.748-0.852-6.695-2.312-1.948-1.461-3.287-3.367-4.018-5.722 0.323 0.164 0.649 0.243 0.974 0.243 0.323 0 0.688 0 1.096 0 1.053 0 2.069-0.121 3.043-0.365-2.599-0.566-4.769-1.887-6.513-3.957-1.747-2.069-2.617-4.524-2.617-7.365v-0.122c1.461 0.813 3.165 1.3 5.113 1.461-1.543-1.054-2.781-2.414-3.713-4.078-0.934-1.662-1.4-3.51-1.4-5.539 0-1.948 0.527-3.854 1.582-5.722 2.84 3.49 6.289 6.312 10.348 8.461 4.057 2.152 8.522 3.308 13.391 3.47-0.244-0.731-0.365-1.583-0.365-2.557 0-1.54 0.304-3.023 0.913-4.443 0.608-1.419 1.418-2.637 2.434-3.653 1.014-1.014 2.231-1.826 3.653-2.435 1.418-0.609 2.941-0.913 4.565-0.913 3.327 0 6.087 1.177 8.278 3.53 1.379-0.243 2.657-0.588 3.835-1.035 1.176-0.445 2.333-0.993 3.469-1.643-0.811 2.678-2.476 4.789-4.991 6.33 2.271-0.322 4.462-0.931 6.574-1.825z" fill="#000000" />
</svg>
