<?xml version="1.0" encoding="utf-8"?>
<!-- Generated by IcoMoon.io -->
<!DOCTYPE svg PUBLIC "-//W3C//DTD SVG 1.1//EN" "http://www.w3.org/Graphics/SVG/1.1/DTD/svg11.dtd">
<svg version="1.1" xmlns="http://www.w3.org/2000/svg" xmlns:xlink="http://www.w3.org/1999/xlink" width="64" height="64" viewBox="0 0 64 64">
	<path d="M59.721 19.103c-0.749 4.479-2.283 8.75-4.6 12.809-2.323 4.064-4.833 7.713-7.526 10.947-2.698 3.234-5.329 5.972-7.9 8.209-2.571 2.237-4.519 3.775-5.845 4.6-1.326 0.916-2.591 1.331-3.796 1.245-1.199-0.081-2.343-0.435-3.416-1.058-1.078-0.623-2.014-1.427-2.799-2.424-0.79-0.997-1.392-1.948-1.807-2.859-0.329-0.663-0.764-1.807-1.306-3.421-0.536-1.62-1.118-3.441-1.741-5.471-0.623-2.035-1.245-4.145-1.862-6.346-0.623-2.196-1.245-4.246-1.868-6.154s-1.164-3.522-1.62-4.853c-0.455-1.326-0.805-2.156-1.053-2.485-0.42-0.415-0.977-0.582-1.68-0.501-0.709 0.086-1.392 0.334-2.055 0.749-0.83 0.415-1.7 0.951-2.611 1.614l-2.236-3.108c1.822-2.156 3.73-4.145 5.719-5.972 1.66-1.574 3.462-3.026 5.41-4.352s3.836-2.196 5.663-2.611c1.903-0.415 3.396 0.020 4.474 1.306s1.908 2.966 2.49 5.036c0.577 2.075 1.032 4.317 1.366 6.721 0.329 2.404 0.703 4.56 1.118 6.468 0.911 3.649 1.7 6.463 2.363 8.457 0.663 1.989 1.412 2.986 2.242 2.986 0.825 0 1.928-0.936 3.295-2.799 1.366-1.868 2.88-4.373 4.54-7.526 0.83-1.574 1.245-3.047 1.245-4.418 0-1.366-0.314-2.465-0.936-3.295s-1.533-1.306-2.733-1.432c-1.205-0.121-2.596 0.314-4.17 1.306 0.415-2.566 1.372-4.808 2.865-6.716 1.493-1.903 3.188-3.421 5.096-4.54 1.908-1.118 3.897-1.802 5.972-2.050 2.070-0.248 3.917 0.020 5.537 0.81 1.614 0.784 2.839 2.090 3.669 3.917 0.825 1.821 0.992 4.225 0.496 7.211z" fill="#000000" />
</svg>
