<?xml version="1.0" encoding="utf-8"?>
<!-- Generated by IcoMoon.io -->
<!DOCTYPE svg PUBLIC "-//W3C//DTD SVG 1.1//EN" "http://www.w3.org/Graphics/SVG/1.1/DTD/svg11.dtd">
<svg version="1.1" xmlns="http://www.w3.org/2000/svg" xmlns:xlink="http://www.w3.org/1999/xlink" width="64" height="64" viewBox="0 0 64 64">
	<path d="M32 8.008c-0.042 0-0.083 0.003-0.125 0.003v4.003c0.042 0 0.083-0.006 0.125-0.006 11.024 0 19.992 8.968 19.992 19.992 0 11.023-8.968 19.991-19.992 19.991s-19.992-8.967-19.992-19.991c0-6.601 3.23-12.447 8.177-16.090l-2.367-3.258c-5.948 4.366-9.81 11.405-9.81 19.348 0 13.25 10.741 23.992 23.992 23.992 13.249 0 23.992-10.742 23.992-23.991 0-13.252-10.743-23.993-23.992-23.993z" fill="#000000" />
</svg>
