<?xml version="1.0" encoding="utf-8"?>
<!-- Generated by IcoMoon.io -->
<!DOCTYPE svg PUBLIC "-//W3C//DTD SVG 1.1//EN" "http://www.w3.org/Graphics/SVG/1.1/DTD/svg11.dtd">
<svg version="1.1" xmlns="http://www.w3.org/2000/svg" xmlns:xlink="http://www.w3.org/1999/xlink" width="64" height="64" viewBox="0 0 64 64">
	<path d="M11.994 8l4.006 48h31.991l3.987-48h-39.984zM46.832 23.218l-0.415 4.734-3.509 2.108-6.995-4.202 7.657-4.6 3.262 1.96zM39.023 32.393l-6.995 4.201-6.995-4.201 6.995-4.202 6.995 4.202zM32.029 23.525l-7.658-4.6 7.658-4.6 7.657 4.6-7.657 4.6zM28.144 25.858l-6.995 4.202-3.475-2.087-0.399-4.785 3.212-1.929 7.657 4.599zM18.823 41.732l-0.446-5.34 2.773-1.666 6.994 4.202-6.994 4.202-2.327-1.398zM32.029 41.262l6.994 4.202-6.994 4.202-6.995-4.202 6.995-4.202zM35.913 38.928l6.994-4.201 2.77 1.664-0.47 5.357-2.3 1.382-6.994-4.202zM47.627 14.156l-4.056 2.437-7.646-4.593h11.89l-0.188 2.156zM28.132 12l-7.645 4.592-3.961-2.379-0.184-2.213h11.79zM19.416 48.838l1.733-1.041 6.993 4.203h-8.462l-0.264-3.162zM35.916 52l-0.002-0.001 6.995-4.202 1.681 1.010-0.281 3.193h-8.393z" fill="#000000" />
</svg>
