<?xml version="1.0" encoding="utf-8"?>
<!-- Generated by IcoMoon.io -->
<!DOCTYPE svg PUBLIC "-//W3C//DTD SVG 1.1//EN" "http://www.w3.org/Graphics/SVG/1.1/DTD/svg11.dtd">
<svg version="1.1" xmlns="http://www.w3.org/2000/svg" xmlns:xlink="http://www.w3.org/1999/xlink" width="64" height="64" viewBox="0 0 64 64">
	<path d="M32 36c-11.045 0-20 8.955-20 20v4h40v-4c0-11.045-8.954-20-20-20zM16 56c0-8.822 7.178-16 16-16s16 7.178 16 16h-32z" fill="#000000" />
	<path d="M32 32c6.627 0 12-5.373 12-12s-5.373-12-12-12c-6.627 0-12 5.373-12 12 0 6.627 5.373 12 12 12zM32 12c4.411 0 8 3.589 8 8s-3.589 8-8 8c-4.411 0-8-3.589-8-8 0-4.411 3.589-8 8-8z" fill="#000000" />
</svg>
